<?xml version="1.0" encoding="UTF-8" standalone="no"?>
<!-- Created with Inkscape (http://www.inkscape.org/) -->

<svg
   xmlns:dc="http://purl.org/dc/elements/1.1/"
   xmlns:cc="http://creativecommons.org/ns#"
   xmlns:rdf="http://www.w3.org/1999/02/22-rdf-syntax-ns#"
   xmlns:svg="http://www.w3.org/2000/svg"
   xmlns="http://www.w3.org/2000/svg"
   xmlns:sodipodi="http://sodipodi.sourceforge.net/DTD/sodipodi-0.dtd"
   xmlns:inkscape="http://www.inkscape.org/namespaces/inkscape"
   id="svg5119"
   version="1.1"
   inkscape:version="0.48.4 r9939"
   width="298.75"
   height="360"
   xml:space="preserve"
   sodipodi:docname="score_distr_examples_refdbs.svg"><metadata
     id="metadata5125"><rdf:RDF><cc:Work
         rdf:about=""><dc:format>image/svg+xml</dc:format><dc:type
           rdf:resource="http://purl.org/dc/dcmitype/StillImage" /><dc:title></dc:title></cc:Work></rdf:RDF></metadata><defs
     id="defs5123"><marker
       inkscape:stockid="Arrow1Sstart"
       orient="auto"
       refY="0.0"
       refX="0.0"
       id="Arrow1Sstart"
       style="overflow:visible"><path
         id="path4263"
         d="M 0.0,0.0 L 5.0,-5.0 L -12.5,0.0 L 5.0,5.0 L 0.0,0.0 z "
         style="fill-rule:evenodd;stroke:#000000;stroke-width:1.0pt"
         transform="scale(0.2) translate(6,0)" /></marker><marker
       inkscape:stockid="Arrow1Mstart"
       orient="auto"
       refY="0.0"
       refX="0.0"
       id="Arrow1Mstart"
       style="overflow:visible"><path
         id="path4257"
         d="M 0.0,0.0 L 5.0,-5.0 L -12.5,0.0 L 5.0,5.0 L 0.0,0.0 z "
         style="fill-rule:evenodd;stroke:#000000;stroke-width:1.0pt"
         transform="scale(0.4) translate(10,0)" /></marker><marker
       inkscape:stockid="Arrow1Lstart"
       orient="auto"
       refY="0.0"
       refX="0.0"
       id="Arrow1Lstart"
       style="overflow:visible"><path
         id="path4251"
         d="M 0.0,0.0 L 5.0,-5.0 L -12.5,0.0 L 5.0,5.0 L 0.0,0.0 z "
         style="fill-rule:evenodd;stroke:#000000;stroke-width:1.0pt"
         transform="scale(0.8) translate(12.5,0)" /></marker><marker
       inkscape:stockid="Arrow1Lend"
       orient="auto"
       refY="0.0"
       refX="0.0"
       id="Arrow1Lend"
       style="overflow:visible;"><path
         id="path4254"
         d="M 0.0,0.0 L 5.0,-5.0 L -12.5,0.0 L 5.0,5.0 L 0.0,0.0 z "
         style="fill-rule:evenodd;stroke:#000000;stroke-width:1.0pt;"
         transform="scale(0.8) rotate(180) translate(12.5,0)" /></marker><clipPath
       clipPathUnits="userSpaceOnUse"
       id="clipPath5141"><path
         d="M 50.891,282.52 234,282.52 234,38 50.891,38 l 0,244.52 z"
         id="path5143" /></clipPath><clipPath
       clipPathUnits="userSpaceOnUse"
       id="clipPath5185"><path
         d="m 50.891,282.52 183.629,0 0,-244.52 -183.629,0 0,244.52 z"
         id="path5187" /></clipPath><marker
       inkscape:stockid="Arrow1Mstart"
       orient="auto"
       refY="0"
       refX="0"
       id="Arrow1Mstart-3"
       style="overflow:visible"><path
         inkscape:connector-curvature="0"
         id="path4257-5"
         d="M 0,0 5,-5 -12.5,0 5,5 0,0 z"
         style="fill-rule:evenodd;stroke:#000000;stroke-width:1pt"
         transform="matrix(0.4,0,0,0.4,4,0)" /></marker></defs><sodipodi:namedview
     pagecolor="#ffffff"
     bordercolor="#666666"
     borderopacity="1"
     objecttolerance="10"
     gridtolerance="10"
     guidetolerance="10"
     inkscape:pageopacity="0"
     inkscape:pageshadow="2"
     inkscape:window-width="1864"
     inkscape:window-height="2067"
     id="namedview5121"
     showgrid="false"
     inkscape:snap-object-midpoints="false"
     inkscape:snap-midpoints="true"
     inkscape:zoom="2.8284271"
     inkscape:cx="160.02525"
     inkscape:cy="267.62861"
     inkscape:window-x="1971"
     inkscape:window-y="42"
     inkscape:window-maximized="0"
     inkscape:current-layer="g5127" /><g
     id="g5127"
     inkscape:groupmode="layer"
     inkscape:label="score_distr_examples_refdbs"
     transform="matrix(1.25,0,0,-1.25,0,360)"><g
       id="g5129"><path
         d="M 0,0 239,0 239,288 0,288 0,0 z"
         style="fill:#ffffff;fill-opacity:1;fill-rule:nonzero;stroke:none"
         id="path5131" /><path
         d="M 0,0 239,0 239,288 0,288 0,0 z"
         style="fill:#ffffff;fill-opacity:1;fill-rule:nonzero;stroke:none"
         id="path5133" /><path
         d="M 0,288 239,288 239,0 0,0 0,288 z"
         style="fill:none;stroke:#ffffff;stroke-opacity:1;stroke-width:1.066978;stroke-linecap:round;stroke-linejoin:round;stroke-miterlimit:10;stroke-dasharray:none"
         id="path5135" /></g><g
       id="g5137"><g
         id="g5139"
         clip-path="url(#clipPath5141)"><path
           d="m 53.860849,245.89187 182.629001,0 0,-243.6290009 -182.629001,0 0,243.6290009 z"
           style="fill:#ffffff;fill-opacity:1;fill-rule:nonzero;stroke:none"
           id="path5145"
           inkscape:connector-curvature="0" /><path
           d="m 59.406,39.297 16.559,0 0,-0.406 -16.559,0 0,0.406 z"
           style="fill:#cccccc;fill-opacity:1;fill-rule:nonzero;stroke:none"
           id="path5147"
           inkscape:connector-curvature="0" /><path
           d="m 75.965,41.734 16.559,0 0,-2.844 -16.559,0 0,2.844 z"
           style="fill:#cccccc;fill-opacity:1;fill-rule:nonzero;stroke:none"
           id="path5149"
           inkscape:connector-curvature="0" /><path
           d="m 92.527,66.098 16.559,0 0,-27.207 -16.559,0 0,27.207 z"
           style="fill:#cccccc;fill-opacity:1;fill-rule:nonzero;stroke:none"
           id="path5151"
           inkscape:connector-curvature="0" /><path
           d="m 109.086,39.297 16.559,0 0,-0.406 -16.559,0 0,0.406 z"
           style="fill:#000000;fill-opacity:1;fill-rule:nonzero;stroke:none"
           id="path5153"
           inkscape:connector-curvature="0" /><path
           d="m 109.086,105.891 16.559,0 0,-66.594 -16.559,0 0,66.594 z"
           style="fill:#cccccc;fill-opacity:1;fill-rule:nonzero;stroke:none"
           id="path5155"
           inkscape:connector-curvature="0" /><path
           d="m 125.645,39.297 16.559,0 0,-0.406 -16.559,0 0,0.406 z"
           style="fill:#000000;fill-opacity:1;fill-rule:nonzero;stroke:none"
           id="path5157"
           inkscape:connector-curvature="0" /><path
           d="m 125.645,118.883 16.559,0 0,-79.586 -16.559,0 0,79.586 z"
           style="fill:#cccccc;fill-opacity:1;fill-rule:nonzero;stroke:none"
           id="path5159"
           inkscape:connector-curvature="0" /><path
           d="m 142.207,39.5 16.559,0 0,-0.609 -16.559,0 0,0.609 z"
           style="fill:#000000;fill-opacity:1;fill-rule:nonzero;stroke:none"
           id="path5161"
           inkscape:connector-curvature="0" /><path
           d="m 142.207,142.434 16.559,0 0,-102.934 -16.559,0 0,102.934 z"
           style="fill:#cccccc;fill-opacity:1;fill-rule:nonzero;stroke:none"
           id="path5163"
           inkscape:connector-curvature="0" /><path
           d="m 158.766,40.109 16.559,0 0,-1.219 -16.559,0 0,1.219 z"
           style="fill:#000000;fill-opacity:1;fill-rule:nonzero;stroke:none"
           id="path5165"
           inkscape:connector-curvature="0" /><path
           d="m 158.766,135.328 16.559,0 0,-95.219 -16.559,0 0,95.219 z"
           style="fill:#cccccc;fill-opacity:1;fill-rule:nonzero;stroke:none"
           id="path5167"
           inkscape:connector-curvature="0" /><path
           d="m 175.324,43.355 16.559,0 0,-4.465 -16.559,0 0,4.465 z"
           style="fill:#000000;fill-opacity:1;fill-rule:nonzero;stroke:none"
           id="path5169"
           inkscape:connector-curvature="0" /><path
           d="m 175.324,164.766 16.559,0 0,-121.41 -16.559,0 0,121.41 z"
           style="fill:#cccccc;fill-opacity:1;fill-rule:nonzero;stroke:none"
           id="path5171"
           inkscape:connector-curvature="0" /><path
           d="m 191.883,53.914 16.559,0 0,-15.023 -16.559,0 0,15.023 z"
           style="fill:#000000;fill-opacity:1;fill-rule:nonzero;stroke:none"
           id="path5173"
           inkscape:connector-curvature="0" /><path
           d="m 191.883,79.699 16.559,0 0,-25.785 -16.559,0 0,25.785 z"
           style="fill:#cccccc;fill-opacity:1;fill-rule:nonzero;stroke:none"
           id="path5175"
           inkscape:connector-curvature="0" /><path
           d="m 208.445,53.508 16.559,0 0,-14.617 -16.559,0 0,14.617 z"
           style="fill:#000000;fill-opacity:1;fill-rule:nonzero;stroke:none"
           id="path5177"
           inkscape:connector-curvature="0" /><path
           d="m 208.445,73.809 16.559,0 0,-20.301 -16.559,0 0,20.301 z"
           style="fill:#cccccc;fill-opacity:1;fill-rule:nonzero;stroke:none"
           id="path5179"
           inkscape:connector-curvature="0" /><path
           style="fill:none;stroke:#000000;stroke-width:0.60000002;stroke-linecap:butt;stroke-linejoin:miter;stroke-miterlimit:4;stroke-opacity:1;stroke-dasharray:0.6, 0.6;stroke-dashoffset:0;marker-start:url(#Arrow1Mstart)"
           d="m 200.1625,79.699 0,148.12984"
           id="path5255"
           inkscape:connector-curvature="0" /><path
           style="fill:none;stroke:#000000;stroke-width:0.60000002;stroke-linecap:butt;stroke-linejoin:miter;stroke-miterlimit:4;stroke-opacity:1;stroke-dasharray:0.6, 0.6;stroke-dashoffset:0;marker-start:url(#Arrow1Mstart);marker-end:none"
           d="m 216.7245,75.409 0,92.34697"
           id="path5257"
           inkscape:connector-curvature="0" /><path
           style="fill:none;stroke:#000000;stroke-width:0.60000002;stroke-linecap:butt;stroke-linejoin:miter;stroke-miterlimit:4;stroke-opacity:1;stroke-dasharray:0.6, 0.6;stroke-dashoffset:0;marker-start:url(#Arrow1Mstart);marker-mid:none"
           d="m 133.9245,120.483 0,59.59158"
           id="path7308"
           inkscape:connector-curvature="0" /><path
           style="fill:none;stroke:#000000;stroke-width:0.60000002;stroke-linecap:butt;stroke-linejoin:miter;stroke-miterlimit:4;stroke-opacity:1;stroke-dasharray:0.6, 0.6;stroke-dashoffset:0;marker-start:url(#Arrow1Mstart)"
           d="m 183.6035,166.366 0,23.04156"
           id="path7689"
           inkscape:connector-curvature="0" /><path
           style="fill:none;stroke:#000000;stroke-width:0.75;stroke-linecap:butt;stroke-linejoin:miter;stroke-miterlimit:4;stroke-opacity:1;stroke-dasharray:0.75, 0.75;stroke-dashoffset:0;marker-start:url(#Arrow1Mstart-3);marker-end:none"
           d="m 105.30563,307.8325 0,-94.2036"
           id="path9044"
           inkscape:connector-curvature="0"
           transform="matrix(0.8,0,0,-0.8,0,288)" /><g
           transform="matrix(0.6487253,0,0,0.6487253,207.40395,165.95927)"
           inkscape:label="ink_ext_XXXXXX"
           id="g10387"><g
             transform="scale(0.1,0.1)"
             id="g10389"><g
               transform="scale(10,10)"
               id="g10391"><text
                 id="text10393"
                 transform="matrix(1,0,0,-1,5.04766,22.2)"><tspan
                   id="tspan10395"
                   sodipodi:role="line"
                   y="0"
                   x="0 7.2199998 14.44"
                   style="font-size:10px;font-variant:normal;font-weight:normal;writing-mode:lr-tb;fill:#000000;fill-opacity:1;fill-rule:nonzero;stroke:none;font-family:Helvetica;-inkscape-font-specification:Helvetica">NH3</tspan><tspan
                   id="tspan10397"
                   sodipodi:role="line"
                   y="16.75"
                   x="-2.8 -0.02 7.1999998 14.42 19.98"
                   style="font-size:10px;font-variant:normal;font-weight:normal;writing-mode:lr-tb;fill:#000000;fill-opacity:1;fill-rule:nonzero;stroke:none;font-family:Helvetica;-inkscape-font-specification:Helvetica">[NH3]</tspan></text>
</g></g></g><g
           transform="matrix(0.6487253,0,0,0.6487253,165.15727,227.98981)"
           inkscape:label="ink_ext_XXXXXX"
           id="g10413"><g
             transform="scale(0.1,0.1)"
             id="g10415"><g
               transform="scale(10,10)"
               id="g10417"><text
                 id="text10419"
                 transform="matrix(1,0,0,-1,24.2855,24.05)"><tspan
                   id="tspan10421"
                   y="0"
                   x="0"
                   style="font-size:10px;font-variant:normal;font-weight:normal;writing-mode:lr-tb;fill:#000000;fill-opacity:1;fill-rule:nonzero;stroke:none;font-family:Helvetica;-inkscape-font-specification:Helvetica">H</tspan></text>
<text
                 id="text10423"
                 transform="matrix(1,0,0,-1,31.50542,22.175)"><tspan
                   id="tspan10425"
                   y="0"
                   x="0"
                   style="font-size:7.5px;font-variant:normal;font-weight:normal;writing-mode:lr-tb;fill:#000000;fill-opacity:1;fill-rule:nonzero;stroke:none;font-family:Helvetica;-inkscape-font-specification:Helvetica">3</tspan></text>
<text
                 id="text10427"
                 transform="matrix(1,0,0,-1,35.67534,24.05)"><tspan
                   id="tspan10429"
                   y="0"
                   x="0"
                   style="font-size:10px;font-variant:normal;font-weight:normal;writing-mode:lr-tb;fill:#000000;fill-opacity:1;fill-rule:nonzero;stroke:none;font-family:Helvetica;-inkscape-font-specification:Helvetica">C</tspan><tspan
                   id="tspan10431"
                   y="-12.4"
                   x="7.1746101"
                   style="font-size:10px;font-variant:normal;font-weight:normal;writing-mode:lr-tb;fill:#000000;fill-opacity:1;fill-rule:nonzero;stroke:none;font-family:Helvetica;-inkscape-font-specification:Helvetica">N</tspan></text>
</g><path
               id="path10433"
               style="fill:#000000;fill-opacity:1;fill-rule:nonzero;stroke:none"
               d="m 430.5,350.5 5,-3 -15,-26 -5.5,3"
               inkscape:connector-curvature="0" /><g
               transform="scale(10,10)"
               id="g10435"><text
                 id="text10437"
                 transform="matrix(1,0,0,-1,57.2,36.45)"><tspan
                   id="tspan10439"
                   y="0"
                   x="0"
                   style="font-size:10px;font-variant:normal;font-weight:normal;writing-mode:lr-tb;fill:#000000;fill-opacity:1;fill-rule:nonzero;stroke:none;font-family:Helvetica;-inkscape-font-specification:Helvetica">N</tspan></text>
</g><path
               id="path10441"
               style="fill:#000000;fill-opacity:1;fill-rule:nonzero;stroke:none"
               d="m 508.5,401 55.5,0 0,5.5 -55.5,0 0,-5.5 z"
               inkscape:connector-curvature="0" /><g
               transform="scale(10,10)"
               id="g10443"><text
                 id="text10445"
                 transform="matrix(1,0,0,-1,64.4,24.05)"><tspan
                   id="tspan10447"
                   sodipodi:role="line"
                   y="0"
                   x="0 7.2199998"
                   style="font-size:10px;font-variant:normal;font-weight:normal;writing-mode:lr-tb;fill:#000000;fill-opacity:1;fill-rule:nonzero;stroke:none;font-family:Helvetica;-inkscape-font-specification:Helvetica">CH</tspan></text>
<text
                 id="text10449"
                 transform="matrix(1,0,0,-1,78.8398,22.175)"><tspan
                   id="tspan10451"
                   y="0"
                   x="0"
                   style="font-size:7.5px;font-variant:normal;font-weight:normal;writing-mode:lr-tb;fill:#000000;fill-opacity:1;fill-rule:nonzero;stroke:none;font-family:Helvetica;-inkscape-font-specification:Helvetica">3</tspan></text>
</g><path
               id="path10453"
               style="fill:#000000;fill-opacity:1;fill-rule:nonzero;stroke:none"
               d="m 658.5,322.5 -5,-3 -16.5,28 5.5,3"
               inkscape:connector-curvature="0" /><g
               transform="scale(10,10)"
               id="g10455"><text
                 id="text10457"
                 transform="matrix(1,0,0,-1,35.7,48.9)"><tspan
                   id="tspan10459"
                   y="0"
                   x="0"
                   style="font-size:10px;font-variant:normal;font-weight:normal;writing-mode:lr-tb;fill:#000000;fill-opacity:1;fill-rule:nonzero;stroke:none;font-family:Helvetica;-inkscape-font-specification:Helvetica">H</tspan></text>
</g><path
               id="path10461"
               style="fill:#000000;fill-opacity:1;fill-rule:nonzero;stroke:none"
               d="m 422,471.5 5,3 11.5,-19.5 -5,-3"
               inkscape:connector-curvature="0" /><g
               transform="scale(10,10)"
               id="g10463"><text
                 id="text10465"
                 transform="matrix(1,0,0,-1,64.4,48.9)"><tspan
                   id="tspan10467"
                   y="0"
                   x="0"
                   style="font-size:10px;font-variant:normal;font-weight:normal;writing-mode:lr-tb;fill:#000000;fill-opacity:1;fill-rule:nonzero;stroke:none;font-family:Helvetica;-inkscape-font-specification:Helvetica">H</tspan></text>
</g><path
               id="path10469"
               style="fill:#000000;fill-opacity:1;fill-rule:nonzero;stroke:none"
               d="m 645.5,475 5.5,-3 -11.5,-20 -5.5,3"
               inkscape:connector-curvature="0" /><g
               transform="scale(10,10)"
               id="g10471"><text
                 id="text10473"
                 transform="matrix(1,0,0,-1,2.95,5.15)"><tspan
                   id="tspan10475"
                   sodipodi:role="line"
                   y="0"
                   x="0 2.78 10 17.219999 22.780001 25.559999 28.889999 31.67 38.889999 46.110001 48.889999 52.220001 55 62.220001 69.440002 72.220001 75.550003 78.330002 85.550003 92.769997 98.330002"
                   style="font-size:10px;font-variant:normal;font-weight:normal;writing-mode:lr-tb;fill:#000000;fill-opacity:1;fill-rule:nonzero;stroke:none;font-family:Helvetica;-inkscape-font-specification:Helvetica">[CH3]-[NH]-[NH]-[CH3]</tspan></text>
</g></g></g><g
           transform="matrix(0.6487253,0,0,0.6487253,168.58063,189.90647)"
           inkscape:label="ink_ext_XXXXXX"
           id="g10517"><g
             transform="scale(0.1,0.1)"
             id="g10519"><g
               transform="scale(10,10)"
               id="g10521"><text
                 id="text10523"
                 transform="matrix(1,0,0,-1,8.64063,22.7)"><tspan
                   id="tspan10525"
                   y="0"
                   x="0"
                   style="font-size:7.5px;font-variant:normal;font-weight:normal;writing-mode:lr-tb;fill:#000000;fill-opacity:1;fill-rule:nonzero;stroke:none;font-family:Helvetica;-inkscape-font-specification:Helvetica">+</tspan></text>
<text
                 id="text10527"
                 transform="matrix(1,0,0,-1,13.02071,18.95)"><tspan
                   id="tspan10529"
                   y="0"
                   x="0"
                   style="font-size:10px;font-variant:normal;font-weight:normal;writing-mode:lr-tb;fill:#000000;fill-opacity:1;fill-rule:nonzero;stroke:none;font-family:Helvetica;-inkscape-font-specification:Helvetica">N</tspan><tspan
                   id="tspan10531"
                   sodipodi:role="line"
                   y="14.4"
                   x="-10.2207 -7.4407001 -0.2207 5.6192999 8.3992996 14.2393 17.0193 24.799299"
                   style="font-size:10px;font-variant:normal;font-weight:normal;writing-mode:lr-tb;fill:#000000;fill-opacity:1;fill-rule:nonzero;stroke:none;font-family:Helvetica;-inkscape-font-specification:Helvetica">[N+]=[O]</tspan><tspan
                   id="tspan10533"
                   y="-1.7763568e-15"
                   x="14.0793"
                   style="font-size:10px;font-variant:normal;font-weight:normal;writing-mode:lr-tb;fill:#000000;fill-opacity:1;fill-rule:nonzero;stroke:none;font-family:Helvetica;-inkscape-font-specification:Helvetica">O</tspan></text>
</g><path
               id="path10535"
               style="fill:#000000;fill-opacity:1;fill-rule:nonzero;stroke:none"
               d="m 210,238.5 50,0 0,6 -50,0 0,-6 z"
               inkscape:connector-curvature="0" /><path
               id="path10537"
               style="fill:#000000;fill-opacity:1;fill-rule:nonzero;stroke:none"
               d="m 210,212.5 50,0 0,6 -50,0 0,-6 z"
               inkscape:connector-curvature="0" /></g></g><g
           transform="matrix(0.6487253,0,0,0.6487253,112.27287,181.17645)"
           inkscape:label="ink_ext_XXXXXX"
           id="g10558"><g
             transform="scale(0.1,0.1)"
             id="g10560"><g
               transform="scale(10,10)"
               id="g10562"><text
                 id="text10564"
                 transform="matrix(1,0,0,-1,17.15,31.05)"><tspan
                   id="tspan10566"
                   y="0"
                   x="0"
                   style="font-size:10px;font-variant:normal;font-weight:normal;writing-mode:lr-tb;fill:#000000;fill-opacity:1;fill-rule:nonzero;stroke:none;font-family:Helvetica;-inkscape-font-specification:Helvetica">P</tspan></text>
<text
                 id="text10568"
                 transform="matrix(1,0,0,-1,23.81992,34.8)"><tspan
                   id="tspan10570"
                   sodipodi:role="line"
                   y="0"
                   x="0 4.1700001"
                   style="font-size:7.5px;font-variant:normal;font-weight:normal;writing-mode:lr-tb;fill:#000000;fill-opacity:1;fill-rule:nonzero;stroke:none;font-family:Helvetica;-inkscape-font-specification:Helvetica">2-</tspan></text>
<text
                 id="text10572"
                 transform="matrix(1,0,0,-1,2.95002,4.55)"><tspan
                   id="tspan10574"
                   sodipodi:role="line"
                   y="0"
                   x="0 2.78 9.4499998 16.67 22.23 25.559999 28.889999 31.67 37.23 40.009998 46.68 53.900002 57.23 60.560001"
                   style="font-size:10px;font-variant:normal;font-weight:normal;writing-mode:lr-tb;fill:#000000;fill-opacity:1;fill-rule:nonzero;stroke:none;font-family:Helvetica;-inkscape-font-specification:Helvetica">[PH2--]#[SH--]</tspan><tspan
                   id="tspan10576"
                   sodipodi:role="line"
                   y="-26.5"
                   x="36.200001 42.869999"
                   style="font-size:10px;font-variant:normal;font-weight:normal;writing-mode:lr-tb;fill:#000000;fill-opacity:1;fill-rule:nonzero;stroke:none;font-family:Helvetica;-inkscape-font-specification:Helvetica">SH</tspan></text>
<text
                 id="text10578"
                 transform="matrix(1,0,0,-1,53.03982,34.8)"><tspan
                   id="tspan10580"
                   sodipodi:role="line"
                   y="0"
                   x="0 4.1700001"
                   style="font-size:7.5px;font-variant:normal;font-weight:normal;writing-mode:lr-tb;fill:#000000;fill-opacity:1;fill-rule:nonzero;stroke:none;font-family:Helvetica;-inkscape-font-specification:Helvetica">2-</tspan></text>
</g><path
               id="path10582"
               style="fill:#000000;fill-opacity:1;fill-rule:nonzero;stroke:none"
               d="m 318.5,386 62,0 0,6 -62,0 0,-6 z"
               inkscape:connector-curvature="0" /><path
               id="path10584"
               style="fill:#000000;fill-opacity:1;fill-rule:nonzero;stroke:none"
               d="m 318.5,346.5 62,0 0,6 -62,0 0,-6 z"
               inkscape:connector-curvature="0" /><path
               id="path10586"
               style="fill:#000000;fill-opacity:1;fill-rule:nonzero;stroke:none"
               d="m 318.5,307 62,0 0,6 -62,0 0,-6 z"
               inkscape:connector-curvature="0" /><g
               transform="scale(10,10)"
               id="g10588"><text
                 id="text10590"
                 transform="matrix(1,0,0,-1,9.7,43.5)"><tspan
                   id="tspan10592"
                   y="0"
                   x="0"
                   style="font-size:10px;font-variant:normal;font-weight:normal;writing-mode:lr-tb;fill:#000000;fill-opacity:1;fill-rule:nonzero;stroke:none;font-family:Helvetica;-inkscape-font-specification:Helvetica">H</tspan></text>
</g><path
               id="path10594"
               style="fill:#000000;fill-opacity:1;fill-rule:nonzero;stroke:none"
               d="m 162.5,417.5 5,3 12,-21 -5,-3"
               inkscape:connector-curvature="0" /><g
               transform="scale(10,10)"
               id="g10596"><text
                 id="text10598"
                 transform="matrix(1,0,0,-1,9.7,18.6)"><tspan
                   id="tspan10600"
                   y="0"
                   x="0"
                   style="font-size:10px;font-variant:normal;font-weight:normal;writing-mode:lr-tb;fill:#000000;fill-opacity:1;fill-rule:nonzero;stroke:none;font-family:Helvetica;-inkscape-font-specification:Helvetica">H</tspan></text>
</g><path
               id="path10602"
               style="fill:#000000;fill-opacity:1;fill-rule:nonzero;stroke:none"
               d="m 164.5,273 -5.5,3 12,20 5,-3"
               inkscape:connector-curvature="0" /></g></g><g
           transform="matrix(0.6487253,0,0,0.6487253,49.369942,117.1503)"
           inkscape:label="ink_ext_XXXXXX"
           id="g10635"><g
             transform="scale(0.1,0.1)"
             id="g10637"><g
               transform="scale(10,10)"
               id="g10639"><text
                 id="text10641"
                 transform="matrix(1,0,0,-1,13.7859,26.3)"><tspan
                   id="tspan10643"
                   sodipodi:role="line"
                   y="0"
                   x="0 4.1700001"
                   style="font-size:7.5px;font-variant:normal;font-weight:normal;writing-mode:lr-tb;fill:#000000;fill-opacity:1;fill-rule:nonzero;stroke:none;font-family:Helvetica;-inkscape-font-specification:Helvetica">2-</tspan></text>
<text
                 id="text10645"
                 transform="matrix(1,0,0,-1,20.45348,22.55)"><tspan
                   id="tspan10647"
                   y="0"
                   x="0"
                   style="font-size:10px;font-variant:normal;font-weight:normal;writing-mode:lr-tb;fill:#000000;fill-opacity:1;fill-rule:nonzero;stroke:none;font-family:Helvetica;-inkscape-font-specification:Helvetica">H</tspan></text>
<text
                 id="text10649"
                 transform="matrix(1,0,0,-1,27.6734,20.675)"><tspan
                   id="tspan10651"
                   y="0"
                   x="0"
                   style="font-size:7.5px;font-variant:normal;font-weight:normal;writing-mode:lr-tb;fill:#000000;fill-opacity:1;fill-rule:nonzero;stroke:none;font-family:Helvetica;-inkscape-font-specification:Helvetica">3</tspan></text>
<text
                 id="text10653"
                 transform="matrix(1,0,0,-1,31.84332,22.55)"><tspan
                   id="tspan10655"
                   y="0"
                   x="0"
                   style="font-size:10px;font-variant:normal;font-weight:normal;writing-mode:lr-tb;fill:#000000;fill-opacity:1;fill-rule:nonzero;stroke:none;font-family:Helvetica;-inkscape-font-specification:Helvetica">O</tspan><tspan
                   id="tspan10657"
                   y="-12.4"
                   x="7.75664"
                   style="font-size:10px;font-variant:normal;font-weight:normal;writing-mode:lr-tb;fill:#000000;fill-opacity:1;fill-rule:nonzero;stroke:none;font-family:Helvetica;-inkscape-font-specification:Helvetica">S</tspan></text>
<text
                 id="text10659"
                 transform="matrix(1,0,0,-1,46.26988,38.7)"><tspan
                   id="tspan10661"
                   sodipodi:role="line"
                   y="0"
                   x="0 4.1700001"
                   style="font-size:7.5px;font-variant:normal;font-weight:normal;writing-mode:lr-tb;fill:#000000;fill-opacity:1;fill-rule:nonzero;stroke:none;font-family:Helvetica;-inkscape-font-specification:Helvetica">2-</tspan></text>
</g><path
               id="path10663"
               style="fill:#000000;fill-opacity:1;fill-rule:nonzero;stroke:none"
               d="m 387.5,347.5 5,-3 -19,-32.5 -5,3"
               inkscape:connector-curvature="0" /><path
               id="path10665"
               style="fill:#000000;fill-opacity:1;fill-rule:nonzero;stroke:none"
               d="m 409.5,335 5.5,-3 -19,-33 -5,3"
               inkscape:connector-curvature="0" /><g
               transform="scale(10,10)"
               id="g10667"><text
                 id="text10669"
                 transform="matrix(1,0,0,-1,60.55,34.95)"><tspan
                   id="tspan10671"
                   y="0"
                   x="0"
                   style="font-size:10px;font-variant:normal;font-weight:normal;writing-mode:lr-tb;fill:#000000;fill-opacity:1;fill-rule:nonzero;stroke:none;font-family:Helvetica;-inkscape-font-specification:Helvetica">S</tspan></text>
<text
                 id="text10673"
                 transform="matrix(1,0,0,-1,67.21992,38.7)"><tspan
                   id="tspan10675"
                   sodipodi:role="line"
                   y="0"
                   x="0 4.1700001"
                   style="font-size:7.5px;font-variant:normal;font-weight:normal;writing-mode:lr-tb;fill:#000000;fill-opacity:1;fill-rule:nonzero;stroke:none;font-family:Helvetica;-inkscape-font-specification:Helvetica">2-</tspan></text>
</g><path
               id="path10677"
               style="fill:#000000;fill-opacity:1;fill-rule:nonzero;stroke:none"
               d="m 543,386 51.5,0 0,5.5 -51.5,0 0,-5.5 z"
               inkscape:connector-curvature="0" /><g
               transform="scale(10,10)"
               id="g10679"><text
                 id="text10681"
                 transform="matrix(1,0,0,-1,67.15,22.55)"><tspan
                   id="tspan10683"
                   sodipodi:role="line"
                   y="0"
                   x="0 7.7800002"
                   style="font-size:10px;font-variant:normal;font-weight:normal;writing-mode:lr-tb;fill:#000000;fill-opacity:1;fill-rule:nonzero;stroke:none;font-family:Helvetica;-inkscape-font-specification:Helvetica">OH</tspan></text>
<text
                 id="text10685"
                 transform="matrix(1,0,0,-1,82.15,20.675)"><tspan
                   id="tspan10687"
                   y="0"
                   x="0"
                   style="font-size:7.5px;font-variant:normal;font-weight:normal;writing-mode:lr-tb;fill:#000000;fill-opacity:1;fill-rule:nonzero;stroke:none;font-family:Helvetica;-inkscape-font-specification:Helvetica">3</tspan><tspan
                   id="tspan10689"
                   sodipodi:role="line"
                   y="-5.625"
                   x="4.16992 8.33992"
                   style="font-size:7.5px;font-variant:normal;font-weight:normal;writing-mode:lr-tb;fill:#000000;fill-opacity:1;fill-rule:nonzero;stroke:none;font-family:Helvetica;-inkscape-font-specification:Helvetica">2-</tspan></text>
</g><path
               id="path10691"
               style="fill:#000000;fill-opacity:1;fill-rule:nonzero;stroke:none"
               d="m 699.5,315 -5,-3 -19,32 5.5,3"
               inkscape:connector-curvature="0" /><path
               id="path10693"
               style="fill:#000000;fill-opacity:1;fill-rule:nonzero;stroke:none"
               d="m 677,302 -5,-3 -18.5,32.5 5,3"
               inkscape:connector-curvature="0" /><g
               transform="scale(10,10)"
               id="g10695"><text
                 id="text10697"
                 transform="matrix(1,0,0,-1,29.4,49.8)"><tspan
                   id="tspan10699"
                   y="0"
                   x="0"
                   style="font-size:10px;font-variant:normal;font-weight:normal;writing-mode:lr-tb;fill:#000000;fill-opacity:1;fill-rule:nonzero;stroke:none;font-family:Helvetica;-inkscape-font-specification:Helvetica">H</tspan></text>
</g><path
               id="path10701"
               style="fill:#000000;fill-opacity:1;fill-rule:nonzero;stroke:none"
               d="m 363,482.5 5,3 36.5,-54 -5,-3.5"
               inkscape:connector-curvature="0" /><g
               transform="scale(10,10)"
               id="g10703"><text
                 id="text10705"
                 transform="matrix(1,0,0,-1,73.45,50.05)"><tspan
                   id="tspan10707"
                   y="0"
                   x="0"
                   style="font-size:10px;font-variant:normal;font-weight:normal;writing-mode:lr-tb;fill:#000000;fill-opacity:1;fill-rule:nonzero;stroke:none;font-family:Helvetica;-inkscape-font-specification:Helvetica">H</tspan></text>
</g><path
               id="path10709"
               style="fill:#000000;fill-opacity:1;fill-rule:nonzero;stroke:none"
               d="m 726.5,493.5 4.5,-3.5 -26.5,-30.5 -4.5,4"
               inkscape:connector-curvature="0" /><g
               transform="scale(10,10)"
               id="g10711"><text
                 id="text10713"
                 transform="matrix(1,0,0,-1,2.7,4.55)"><tspan
                   id="tspan10715"
                   sodipodi:role="line"
                   y="0"
                   x="0 2.78 10 17.219999 22.780001 25.559999 28.889999 31.67 38.889999 46.110001 48.889999 52.220001 55 62.220001 69.440002 72.220001 75.550003 78.330002 85.550003 92.769997 98.330002"
                   style="font-size:10px;font-variant:normal;font-weight:normal;writing-mode:lr-tb;fill:#000000;fill-opacity:1;fill-rule:nonzero;stroke:none;font-family:Helvetica;-inkscape-font-specification:Helvetica">[CH3]-[NH]-[NH]-[CH3]</tspan></text>
</g></g></g></g></g><g
       id="g5181"><g
         id="g5183"
         clip-path="url(#clipPath5185)"><path
           d="m 50.891,282.52 182.629,0 0,-243.629 -182.629,0 0,243.629 z"
           style="fill:none;stroke:#b3b3b3;stroke-opacity:1;stroke-width:1.066978;stroke-linecap:round;stroke-linejoin:round;stroke-miterlimit:10;stroke-dasharray:none"
           id="path5189" /></g></g><g
       id="g5191"><text
         transform="matrix(1,0,0,-1,37.957031,34.196289)"
         id="text5193"><tspan
           style="fill:#4d4d4d;fill-opacity:1;fill-rule:nonzero;stroke:none;font-family:TeXGyreHeros;font-variant:normal;font-weight:normal;font-size:12.799805;writing-mode:lr;-inkscape-font-specification:TeXGyreHeros-Regular"
           x="0"
           y="0"
           id="tspan5195">0</tspan><tspan
           style="fill:#4d4d4d;fill-opacity:1;fill-rule:nonzero;stroke:none;font-family:TeXGyreHeros;font-variant:normal;font-weight:normal;font-size:12.799805;writing-mode:lr;-inkscape-font-specification:TeXGyreHeros-Regular"
           x="-14.00000432 -6.88331274 0.23337884"
           y="-40.605474"
           sodipodi:role="line"
           id="tspan5197">200</tspan><tspan
           style="fill:#4d4d4d;fill-opacity:1;fill-rule:nonzero;stroke:none;font-family:TeXGyreHeros;font-variant:normal;font-weight:normal;font-size:12.799805;writing-mode:lr;-inkscape-font-specification:TeXGyreHeros-Regular"
           x="-14.00000432 -6.88331274 0.23337884"
           y="-81.210948"
           sodipodi:role="line"
           id="tspan5199">400</tspan><tspan
           style="fill:#4d4d4d;fill-opacity:1;fill-rule:nonzero;stroke:none;font-family:TeXGyreHeros;font-variant:normal;font-weight:normal;font-size:12.799805;writing-mode:lr;-inkscape-font-specification:TeXGyreHeros-Regular"
           x="-14.00000432 -6.88331274 0.23337884"
           y="-121.81642"
           sodipodi:role="line"
           id="tspan5201">600</tspan><tspan
           style="fill:#4d4d4d;fill-opacity:1;fill-rule:nonzero;stroke:none;font-family:TeXGyreHeros;font-variant:normal;font-weight:normal;font-size:12.799805;writing-mode:lr;-inkscape-font-specification:TeXGyreHeros-Regular"
           x="-14.00000432 -6.88331274 0.23337884"
           y="-162.41798"
           sodipodi:role="line"
           id="tspan5203">800</tspan></text>
<path
         d="m 48.152,38.891 2.739,0"
         style="fill:none;stroke:#b3b3b3;stroke-opacity:1;stroke-width:0.533489;stroke-linecap:butt;stroke-linejoin:round;stroke-miterlimit:10;stroke-dasharray:none"
         id="path5205" /><path
         d="m 48.152,79.496 2.739,0"
         style="fill:none;stroke:#b3b3b3;stroke-opacity:1;stroke-width:0.533489;stroke-linecap:butt;stroke-linejoin:round;stroke-miterlimit:10;stroke-dasharray:none"
         id="path5207" /><path
         d="m 48.152,120.102 2.739,0"
         style="fill:none;stroke:#b3b3b3;stroke-opacity:1;stroke-width:0.533489;stroke-linecap:butt;stroke-linejoin:round;stroke-miterlimit:10;stroke-dasharray:none"
         id="path5209" /><path
         d="m 48.152,160.707 2.739,0"
         style="fill:none;stroke:#b3b3b3;stroke-opacity:1;stroke-width:0.533489;stroke-linecap:butt;stroke-linejoin:round;stroke-miterlimit:10;stroke-dasharray:none"
         id="path5211" /><path
         d="m 48.152,201.309 2.739,0"
         style="fill:none;stroke:#b3b3b3;stroke-opacity:1;stroke-width:0.533489;stroke-linecap:butt;stroke-linejoin:round;stroke-miterlimit:10;stroke-dasharray:none"
         id="path5213" /><path
         d="m 51.129,36.152 0,2.739"
         style="fill:none;stroke:#b3b3b3;stroke-opacity:1;stroke-width:0.533489;stroke-linecap:butt;stroke-linejoin:round;stroke-miterlimit:10;stroke-dasharray:none"
         id="path5215" /><path
         d="m 85.191,36.152 0,2.739"
         style="fill:none;stroke:#b3b3b3;stroke-opacity:1;stroke-width:0.533489;stroke-linecap:butt;stroke-linejoin:round;stroke-miterlimit:10;stroke-dasharray:none"
         id="path5217" /><path
         d="m 119.258,36.152 0,2.739"
         style="fill:none;stroke:#b3b3b3;stroke-opacity:1;stroke-width:0.533489;stroke-linecap:butt;stroke-linejoin:round;stroke-miterlimit:10;stroke-dasharray:none"
         id="path5219" /><path
         d="m 153.324,36.152 0,2.739"
         style="fill:none;stroke:#b3b3b3;stroke-opacity:1;stroke-width:0.533489;stroke-linecap:butt;stroke-linejoin:round;stroke-miterlimit:10;stroke-dasharray:none"
         id="path5221" /><path
         d="m 187.391,36.152 0,2.739"
         style="fill:none;stroke:#b3b3b3;stroke-opacity:1;stroke-width:0.533489;stroke-linecap:butt;stroke-linejoin:round;stroke-miterlimit:10;stroke-dasharray:none"
         id="path5223" /><path
         d="m 221.457,36.152 0,2.739"
         style="fill:none;stroke:#b3b3b3;stroke-opacity:1;stroke-width:0.533489;stroke-linecap:butt;stroke-linejoin:round;stroke-miterlimit:10;stroke-dasharray:none"
         id="path5225" /><text
         transform="matrix(1,0,0,-1,47.128906,24.262695)"
         id="text5227"><tspan
           style="fill:#4d4d4d;fill-opacity:1;fill-rule:nonzero;stroke:none;font-family:TeXGyreHeros;font-variant:normal;font-weight:normal;font-size:12.799805;writing-mode:lr;-inkscape-font-specification:TeXGyreHeros-Regular"
           x="0 30.56593434 37.68262592 64.62621544 71.74290702 98.69929635 105.81598793 132.75957746 139.87626904 163.33831161 170.45500319 177.57169477"
           y="0"
           sodipodi:role="line"
           id="tspan5229">020406080100</tspan></text>
<text
         transform="matrix(1,0,0,-1,122.70703,7.112305)"
         id="text5231"><tspan
           style="fill:#000000;fill-opacity:1;fill-rule:nonzero;stroke:none;font-family:TeXGyreHeros;font-variant:normal;font-weight:normal;font-size:16;writing-mode:lr;-inkscape-font-specification:TeXGyreHeros-Regular"
           x="0 8 16 24.896 30.064"
           y="0"
           sodipodi:role="line"
           id="tspan5233">score</tspan></text>
<text
         transform="matrix(0,1,1,0,16.848633,140.70703)"
         id="text5235"><tspan
           style="fill:#000000;fill-opacity:1;fill-rule:nonzero;stroke:none;font-family:TeXGyreHeros;font-variant:normal;font-weight:normal;font-size:16;writing-mode:lr;-inkscape-font-specification:TeXGyreHeros-Regular"
           x="0 8 16.896 25.792 34.688"
           y="0"
           sodipodi:role="line"
           id="tspan5237">count</tspan></text>
<path
         d="m 9.043,283.023 17.281,0 0,-17.281 -17.281,0 0,17.281 z"
         style="fill:#ffffff;fill-opacity:1;fill-rule:nonzero;stroke:none"
         id="path5241" /><path
         d="m 55.516712,279.10922 11.231286,0 0,-11.23128 -11.231286,0 0,11.23128 z"
         style="fill:#cccccc;fill-opacity:1;fill-rule:nonzero;stroke:none"
         id="path5243"
         inkscape:connector-curvature="0" /><path
         d="m 9.043,265.742 17.281,0 0,-17.281 -17.281,0 0,17.281 z"
         style="fill:#ffffff;fill-opacity:1;fill-rule:nonzero;stroke:none"
         id="path5245" /><path
         d="m 55.516712,266.87396 11.231286,0 0,-11.23128 -11.231286,0 0,11.23128 z"
         style="fill:#000000;fill-opacity:1;fill-rule:nonzero;stroke:none"
         id="path5247"
         inkscape:connector-curvature="0" /><text
         transform="scale(1,-1)"
         id="text5249"
         x="68.778145"
         y="-270.1687"
         style="font-size:8.49621296px"><tspan
           style="font-size:9.06248951px;font-variant:normal;font-weight:normal;writing-mode:lr-tb;fill:#000000;fill-opacity:1;fill-rule:nonzero;stroke:none;font-family:TeXGyreHeros;-inkscape-font-specification:TeXGyreHeros-Regular"
           sodipodi:role="line"
           id="tspan5251"
           x="68.778145"
           y="-270.1687">not in DB</tspan><tspan
           style="font-size:9.06248951px;font-variant:normal;font-weight:normal;writing-mode:lr-tb;fill:#000000;fill-opacity:1;fill-rule:nonzero;stroke:none;font-family:TeXGyreHeros;-inkscape-font-specification:TeXGyreHeros-Regular"
           sodipodi:role="line"
           id="tspan5253"
           x="68.778145"
           y="-258.84058">DB</tspan></text>
</g></g></svg>